#!OML:ASF F:\VICON\USERDATA\INSTALL\rory3\rory3.ASF
:FULLY-SPECIFIED
:DEGREES
90
root 1.3598253021163296 17.910788303528513 47.74059394604127 -3.8261653269272444 1.007342543532356 -7.961126330293739
lfemur -19.864334530182006 -1.1944103944953466 -12.546716329237189
ltibia 44.672708018307375
lfoot -9.870200476078818 2.0880747237606347
ltoes -15.415471876081142
rfemur -2.9781395533810446 3.530112825602889 32.98247691893432
rtibia 34.00909247322495
rfoot -1.5959955811010484 -10.617791978591603
rtoes 4.586897909676063
lowerback nan 0.8828671697373571 5.569622410641264
upperback -0.3031680352138314 2.301547474222397 2.0795921534387993
thorax -5.94585848013571 1.0479233011726299 -1.2448437733391413
lowerneck -16.078714609812266 -3.964502741980391 -1.5796068748163365
upperneck 21.70824239670715 -5.639192446910984 1.3326341765163932
head 9.714063536144035 -2.5247833203642127 -0.04963489131636825
lclavicle -2.5494958722826965e-15 -2.772870847631732e-15
lhumerus -31.902960457045523 4.316737901809837 82.46575851841483
lradius 25.007968094702754
lwrist 11.602964622468644
lhand -29.633170297616232 18.42582572247871
lfingers nan
lthumb -3.002549523042058 48.33735981452432
rclavicle -2.530523097054351e-15 -2.75911866823183e-15
rhumerus -29.600604097991756 -20.47539589723411 -75.46785158167512
rradius 31.504810336000464
rwrist 2.304957894420445
rhand -18.009410151407288 nan
rfingers nan
rthumb 8.841288458998674 -7.05186185416081
91
root 1.3471417408041881 17.910225626742143 48.15117759430568 -3.8732596625263147 1.4141080212729957 -7.799152387647739
lfemur -19.581040370075883 -1.4988183511940567 -13.174385170279042
ltibia 39.041759839976066
lfoot -9.906656503180077 0.9520262161819564
ltoes -15.78353530854713
rfemur -3.542456061204234 3.213102242131146 32.5120910092751
rtibia 37.26494260377378
rfoot -1.1305314817131382 -11.387940945380764
rtoes 6.25919302107713
lowerback nan 0.9676764872730891 5.492497223348735
upperback -0.3274651776543819 2.3872435012192175 1.9840241192711372
thorax -5.8815673488919264 1.0937289344335401 -1.4146277744422389
lowerneck -15.973532765757405 -3.9825495115900464 -1.6577540772415365
upperneck 21.7594071779247 -5.680912824170795 1.4807324868589016
head 9.735958597818753 -2.5322423685128275 0.00044505268464464787
lclavicle -2.546289125020355e-15 -2.7716566777377125e-15
lhumerus -31.46372746382911 3.878766717616823 82.34194713589433
lradius 25.431633267349277
lwrist 11.43514976799168
lhand -29.56728656960249 18.446572347927937
lfingers nan
lthumb -2.9321577166868154 48.375120013110156
rclavicle -2.5303626033318648e-15 -2.759531639942364e-15
rhumerus -29.473634692384834 -20.16199523602046 -75.67220483829577
rradius 31.65264629655285
rwrist 2.2608463281431663
rhand -18.013516756351947 nan
rfingers nan
rthumb 8.772291043304257 -7.2150056790175086
92
root 1.3457517630903355 17.914539631361045 49.136762354494735 -3.8961332958523953 1.880378438662859 -7.416445960288309
lfemur -18.786411206633694 -1.833726702145663 -14.100704967684969
ltibia 33.94278905102563
lfoot -9.652055708521605 1.036244410235443
ltoes -15.390642555060499
rfemur -4.223249423623631 2.696912551964263 31.847378851388456
rtibia 40.789394542694424
rfoot -1.3129721176484246 -12.062409193940862
rtoes 7.322606216583481
lowerback nan 0.9870809410568366 5.234003997592152
upperback -0.35162654893232287 2.3215615299694816 1.879388639478856
thorax -5.855902786243597 1.0779362515285513 -1.4165304404544876
lowerneck -15.950652041238076 -3.9829248731147895 -1.7016053870905261
upperneck 21.753929509478763 -5.689802368030273 1.6433412501520959
head 9.74376841184655 -2.5274606532095585 0.05988812782755301
lclavicle -2.544251414754193e-15 -2.7708717441530195e-15
lhumerus -30.942953567391193 3.311303856805765 82.16720669412656
lradius 25.84352399972846
lwrist 11.219129891981606
lhand -29.520915713421083 18.434093259915468
lfingers nan
lthumb -2.8887295496548666 48.38554382492175
rclavicle -2.5304971506826894e-15 -2.759914557015292e-15
rhumerus -29.402882974865037 -19.776018847372043 -75.79778199342385
rradius 31.786280096109685
rwrist 2.244697632335094
rhand -18.013245937125856 nan
rfingers nan
rthumb 8.854572532449676 -7.0669511774034195
93
root 1.339917890547329 17.915961328859968 49.97053833930504 -3.9565189175169495 2.2651554132074363 -6.580263816792319
lfemur -17.42572697825128 -2.152101091776174 -15.418243852633776
ltibia 29.721620874889894
lfoot -9.300870479574348 -0.8541669905724389
ltoes -16.397806507576572
rfemur -4.953679255804802 2.084933080013624 30.827986232899804
rtibia 44.33065705398302
rfoot -2.041027099879919 -12.409763810159308
rtoes 8.003697913105396
lowerback nan 0.9504390975246355 4.610429864250089
upperback -0.3523267317286717 2.1239087511523422 1.729126687184329
thorax -5.845096452565764 1.0033359728614828 -1.254410845463396
lowerneck -15.984416508785632 -3.9749702165749228 -1.7138078742017688
upperneck 21.696087147807095 -5.6845631340160105 1.8154821218771926
head 9.736216020448804 -2.516090694123955 0.125314862714839
lclavicle -2.5453289171910474e-15 -2.771407269246416e-15
lhumerus -30.35251638246619 2.7488180211199658 81.96345855998624
lradius 26.24300549677496
lwrist 10.787294754682417
lhand -29.450498444387573 18.419290377402874
lfingers nan
lthumb -2.811132579751845 48.4241805500483
rclavicle -2.5299006414439533e-15 -2.759448402187935e-15
rhumerus -29.359450877947197 -19.316775465635946 -75.84258507886615
rradius 31.88850703119227
rwrist 2.259896273011245
rhand -18.015859541358264 nan
rfingers nan
rthumb 8.78506368117888 -7.243123602778326
94
root 1.3353684047209478 17.911671231316728 50.406186761604566 -4.119590880665099 2.593485539665325 -5.510021193986154
lfemur -15.643065678040735 -2.4533202827549845 -16.9549396437447
ltibia 26.728912638883624
lfoot -9.815354269864937 -1.3211136743154173
ltoes -15.699194847358172
rfemur -6.1660689292478486 1.384733802376506 29.46653851805293
rtibia 48.0487958139911
rfoot -3.0784809973504252 -12.204062746338632
rtoes 8.268544299079478
lowerback nan 0.829431700669188 3.7012904059797185
upperback -0.32895511057014865 1.772543720099905 1.5626837605120614
thorax -5.847524774324103 0.8575985337658666 -0.9387427275789773
lowerneck -16.059040892007122 -3.967015620301897 -1.712002379182362
upperneck 21.616146716049496 -5.673431127877102 1.9962782869515832
head 9.721649457482995 -2.5010665566452386 0.1947138378598993
lclavicle -2.549162922507335e-15 -2.7730809420873318e-15
lhumerus -29.63626375258941 2.367434538728994 81.79284765401465
lradius 26.62081533764956
lwrist 10.102333326524164
lhand -29.407181736205334 18.327017106078593
lfingers nan
lthumb -2.7706133142480263 48.368986277214375
rclavicle -2.529197747786428e-15 -2.7585359719621826e-15
rhumerus -29.415370745610517 -18.961632886767184 -75.91047297596882
rradius 31.948962092285857
rwrist 2.292373798663272
rhand -18.014118192865936 nan
rfingers nan
rthumb 8.844766673492169 -7.137702738075411
95
root 1.3259808173854082 17.904156911239927 50.563680152984304 -4.187106561668026 2.897416169515524 -4.68021868082244
lfemur -13.733906846629687 -2.760551916511737 -18.30924438049589
ltibia 25.153835019784854
lfoot -10.241812400491327 -1.9381022048343577
ltoes -15.195549219062144
rfemur -8.391521337387733 0.6447840197133488 28.057539934648076
rtibia 52.240804130602214
rfoot -4.23421278740163 -11.463306593577904
rtoes 8.051554850886799
lowerback nan 0.6791141587424695 2.9786808720122684
upperback -0.30196902592730934 1.4654958898170396 1.4575274487360146
thorax -5.87552345376092 0.7132451047370045 -0.6533470532902312
lowerneck -16.154287582979666 -3.956845013937004 -1.6966587410881764
upperneck 21.52443054721611 -5.656125563169931 2.165238740726146
head 9.702310371401945 -2.4835018480328372 0.2598236353521126
lclavicle -2.5540390543196364e-15 -2.7748979317021987e-15
lhumerus -28.85809014099895 2.09263464208993 81.68160458319018
lradius 26.957267491174267
lwrist 9.332309006243339
lhand -29.398482424111 18.270533285009623
lfingers nan
lthumb -2.716163680526672 48.433685962232225
rclavicle -2.5289609922313457e-15 -2.757561118982544e-15
rhumerus -29.524918924429134 -18.78203289913857 -76.04650317673759
rradius 31.95000073638199
rwrist 2.3285723098939766
rhand -18.014161421429975 nan
rfingers nan
rthumb 8.762867924199869 -7.320130199230213
96
root 1.320785972832483 17.897072081718544 50.961926019108944 -4.195902590288687 3.1628368431970477 -3.703743225536721
lfemur -11.62969072152471 -3.093691531252061 -19.804120739698448
ltibia 24.549585612015722
lfoot -9.774375351301561 -1.027059408016323
ltoes -15.456131751765014
rfemur -11.622993831775847 -0.17213562767074642 26.321936645588792
rtibia 56.689942352176466
rfoot -5.2683185692507415 -10.329703934959682
rtoes 7.385656871755817
lowerback nan 0.449051301043093 2.104240284313893
upperback -0.2823368797719844 0.9858171255437809 1.3312565701044898
thorax -5.931406329820552 0.4940908017112615 -0.23051915470408346
lowerneck -16.266415310618385 -3.939494588146454 -1.6635386409787927
upperneck 21.44109007705093 -5.6227986554056475 2.3022820234200845
head 9.688214407051117 -2.4615736597545297 0.3143191217862432
lclavicle -2.5580056798352897e-15 -2.7761935768685236e-15
lhumerus -28.139693852602797 1.747806073570013 81.60470355668765
lradius 27.239861500377884
lwrist 8.702378564913904
lhand -29.44273877645395 18.29536103531095
lfingers nan
lthumb -2.733002685892731 48.50697688776582
rclavicle -2.5295778513996447e-15 -2.7571125258334843e-15
rhumerus -29.69271782074363 -18.819985269039744 -76.27421109210027
rradius 31.880875685425867
rwrist 2.3549908715059544
rhand -18.015781143535502 nan
rfingers nan
rthumb 8.793951652379864 -7.24450284362099
97
root 1.3235174642896343 17.89297592671175 51.77161364451108 -4.099723801829956 3.233710554525964 -2.2419401027409354
lfemur -8.924146197842571 -3.406557697189928 -21.629538795484095
ltibia 24.15228437496381
lfoot -9.619882613604304 -1.7115425962099267
ltoes -14.970088774029982
rfemur -15.203003358018957 -1.0514697369441914 24.18318877609475
rtibia 60.620739099499936
rfoot -5.908012925548718 -8.86143863931928
rtoes 6.378902223131923
lowerback nan 0.1728722118179459 0.849583933582818
upperback -0.24195246362273304 0.3917546749918814 1.148074958098829
thorax -5.982024833416409 0.2255567913468796 0.40162540354565746
lowerneck -16.38669719186161 -3.910549603599031 -1.6185114721668328
upperneck 21.373600479989076 -5.566634353912781 2.396326323437018
head 9.68591004350769 -2.433891518657113 0.35561729853981894
lclavicle -2.563076442228432e-15 -2.777638918247943e-15
lhumerus -27.49062047333216 1.3325081895001785 81.56319815750415
lradius 27.440296211877737
lwrist 8.294399751924734
lhand -29.480519170126225 18.44434151145625
lfingers nan
lthumb -2.7077238542811224 48.7671727989199
rclavicle -2.528708236677521e-15 -2.7554049225032265e-15
rhumerus -29.913494439738365 -19.03500212386728 -76.5739974405526
rradius 31.738372486252853
rwrist 2.3675485291593787
rhand -18.020186305620715 nan
rfingers nan
rthumb 8.723269147030297 -7.379868637964111
